<svg xmlns="http://www.w3.org/2000/svg" viewBox="0 0 612 612" style="enable-background:new 0 0 612 612;" xml:space="preserve">
<path d="M362.4,103.9c0-28.7,0-57.4,0-86.1c0-9.8-8-17.8-17.8-17.8c-28.9,0-57.8,0-86.7,0c-9.8,0-17.8,8-17.8,17.8
	c0,28.7,0,57.4,0,86.1c-28.7,0-57.4,0-86.1,0c-9.8,0-17.8,8-17.8,17.8c0,28.9,0,57.8,0,86.7c0,9.8,8,17.8,17.8,17.8
	c28.7,0,57.4,0,86.1,0c0,95.6,0,191.2,0,286.8c0,9.8,8,17.8,17.8,17.8c28.9,0,57.8,0,86.7,0c9.8,0,17.8-8,17.8-17.8
	c0-95.6,0-191.2,0-286.8c28.7,0,57.4,0,86.1,0c9.8,0,17.8-8,17.8-17.8c0-28.9,0-57.8,0-86.7c0-9.8-8-17.8-17.8-17.8
	C419.8,103.9,391.1,103.9,362.4,103.9z M431.8,190.6c-28.7,0-57.4,0-86.1,0c-9.8,0-17.8,8-17.8,17.8c0,95.6,0,191.2,0,286.8
	c-9.6,0-19.2,0-28.8,0c0-95.6,0-191.2,0-286.8c0-9.8-8-17.8-17.8-17.8c-28.7,0-57.4,0-86.1,0c0-9.6,0-19.2,0-28.8
	c28.7,0,57.4,0,86.1,0c9.8,0,17.8-8,17.8-17.8c0-28.7,0-57.4,0-86.1c9.6,0,19.2,0,28.8,0c0,28.7,0,57.4,0,86.1
	c0,9.8,8,17.8,17.8,17.8c28.7,0,57.4,0,86.1,0C431.8,171.4,431.8,181,431.8,190.6z"/>
</svg>